<svg width="1839" height="125" viewBox="0 0 1839 125" fill="none" xmlns="http://www.w3.org/2000/svg">
<path d="M104.959 97.6445C96.3086 109.15 82.5352 119.229 64.8984 119.229C47.6816 119.229 34.748 111.838 26.0977 100.752C21.7305 95.209 18.4551 89.0781 16.2715 82.3594C14.0879 75.6406 12.9961 69.0059 12.9961 62.3711C12.9961 55.7363 14.1719 49.1016 16.4395 42.3828C18.707 35.6641 22.0664 29.5332 26.5176 23.9062C35.3359 12.8203 48.3535 5.42969 64.8984 5.42969C83.0391 5.42969 96.3926 15.1719 104.959 26.4258V15.6758C93.957 7.61328 80.0156 0.726562 64.8984 0.726562C47.0938 0.726562 31.0527 7.78125 19.2949 19.2031C7.53711 30.625 0.398438 45.9102 0.398438 62.3711C0.398438 78.832 7.53711 94.1172 19.2949 105.539C31.0527 117.045 47.0938 124.1 64.8984 124.1C80.0156 124.1 93.957 117.045 104.959 109.066V97.6445ZM109.716 121.916H198.655V118.221H127.017L202.099 3.24609H113.159L113.327 6.94141H184.462L109.716 121.916ZM294.955 3.33008L256.07 55.6523L222.057 3.33008H206.856L244.313 60.6914V121.916H256.994V60.6074L299.574 3.33008H294.955ZM393.271 102.768L312.478 3.24609H308.53V121.916H312.478V22.2266L393.271 121.916H397.302V3.24609H393.271V102.768ZM495.197 102.768L414.404 3.24609H410.457V121.916H414.404V22.2266L495.197 121.916H499.229V3.24609H495.197V102.768ZM572.685 0.726562C554.88 0.726562 538.839 7.78125 527.081 19.2031C515.323 30.625 508.185 45.9102 508.185 62.3711C508.185 78.832 515.323 94.1172 527.081 105.539C538.839 117.045 554.88 124.1 572.685 124.1C590.489 124.1 606.53 117.045 618.288 105.539C630.046 94.1172 637.185 78.832 637.185 62.3711C637.185 45.9102 630.046 30.625 618.288 19.2031C606.53 7.78125 590.489 0.726562 572.685 0.726562ZM572.685 119.229C555.468 119.229 542.534 111.838 533.884 100.752C529.517 95.209 526.241 89.0781 524.058 82.3594C521.874 75.6406 520.782 69.0059 520.782 62.3711C520.782 55.7363 521.958 49.1016 524.226 42.3828C526.493 35.6641 529.853 29.5332 534.304 23.9062C543.122 12.8203 556.14 5.42969 572.685 5.42969C590.07 5.42969 603.003 12.8203 611.654 23.9062C620.304 35.0762 624.587 49.1855 624.587 62.3711C624.587 69.0059 623.495 75.6406 621.228 82.3594C618.96 89.0781 615.601 95.209 611.234 100.752C602.415 111.838 589.482 119.229 572.685 119.229ZM715.932 14.0801L715.512 13.5762C715.26 13.2402 714.84 12.7363 714.252 11.9805C713.16 10.6367 711.229 9.125 708.541 7.36133C703.082 3.91797 694.012 0.726562 679.819 0.726562C673.352 0.726562 667.137 1.90234 661.006 4.25391C654.875 6.60547 649.752 9.79688 645.805 13.7441C641.858 17.7754 639.842 22.2266 639.842 27.1816C639.842 40.7871 656.555 50.3613 674.024 59.8516C692.752 70.0977 712.069 80.9316 712.069 98.0645C712.069 107.891 701.151 120.824 676.711 120.824C666.885 120.824 660.67 119.145 656.723 116.961C652.776 114.777 651.012 112.426 650.424 110.998L649.92 109.906H636.315L637.239 111.334C639.674 115.197 648.996 124.1 676.879 124.1C711.733 124.1 725.842 109.402 725.842 95.041C725.842 85.6348 720.635 77.9082 712.656 71.4414C704.678 64.9746 694.768 59.3477 684.774 54.2246C679.315 51.3691 674.276 48.5137 669.656 45.7422C660.25 40.1152 653.867 34.2363 653.867 26.9297C653.867 17.6074 662.434 4.33789 679.651 4.33789C688.301 4.33789 694.684 6.60547 699.051 9.20898C703.418 11.8125 705.602 14.0801 705.602 14.0801H715.932ZM829.616 97.6445C820.966 109.15 807.193 119.229 789.556 119.229C772.339 119.229 759.406 111.838 750.755 100.752C746.388 95.209 743.113 89.0781 740.929 82.3594C738.745 75.6406 737.654 69.0059 737.654 62.3711C737.654 55.7363 738.829 49.1016 741.097 42.3828C743.365 35.6641 746.724 29.5332 751.175 23.9062C759.993 12.8203 773.011 5.42969 789.556 5.42969C807.697 5.42969 821.05 15.1719 829.616 26.4258V15.6758C818.615 7.61328 804.673 0.726562 789.556 0.726562C771.751 0.726562 755.71 7.78125 743.952 19.2031C732.195 30.625 725.056 45.9102 725.056 62.3711C725.056 78.832 732.195 94.1172 743.952 105.539C755.71 117.045 771.751 124.1 789.556 124.1C804.673 124.1 818.615 117.045 829.616 109.066V97.6445ZM838.657 121.916H851.338L851.254 3.33008H838.573L838.657 121.916ZM1005.31 102.768L924.512 3.24609H920.565V121.916H924.512V22.2266L1005.31 121.916H1009.34V3.24609H1005.31V102.768ZM1082.79 0.726562C1064.99 0.726562 1048.95 7.78125 1037.19 19.2031C1025.43 30.625 1018.29 45.9102 1018.29 62.3711C1018.29 78.832 1025.43 94.1172 1037.19 105.539C1048.95 117.045 1064.99 124.1 1082.79 124.1C1100.6 124.1 1116.64 117.045 1128.4 105.539C1140.15 94.1172 1147.29 78.832 1147.29 62.3711C1147.29 45.9102 1140.15 30.625 1128.4 19.2031C1116.64 7.78125 1100.6 0.726562 1082.79 0.726562ZM1082.79 119.229C1065.58 119.229 1052.64 111.838 1043.99 100.752C1039.62 95.209 1036.35 89.0781 1034.17 82.3594C1031.98 75.6406 1030.89 69.0059 1030.89 62.3711C1030.89 55.7363 1032.07 49.1016 1034.33 42.3828C1036.6 35.6641 1039.96 29.5332 1044.41 23.9062C1053.23 12.8203 1066.25 5.42969 1082.79 5.42969C1100.18 5.42969 1113.11 12.8203 1121.76 23.9062C1130.41 35.0762 1134.69 49.1855 1134.69 62.3711C1134.69 69.0059 1133.6 75.6406 1131.34 82.3594C1129.07 89.0781 1125.71 95.209 1121.34 100.752C1112.52 111.838 1099.59 119.229 1082.79 119.229ZM1178.08 121.916H1190.77V7.02539H1239.65V3.33008H1129.63L1129.79 7.02539H1178L1178.08 121.916ZM1321.58 121.916L1273.88 3.24609H1259.35L1211.48 121.916H1218.53L1237.94 72.9531C1244.23 73.373 1249.61 74.1289 1253.89 75.3887C1258.18 76.6484 1262.21 77.9922 1265.9 79.5039C1269.6 81.0996 1273.71 82.5273 1278.16 83.7871C1282.61 85.0469 1288.24 85.9707 1294.88 86.3906L1309.49 121.916H1321.58ZM1263.21 9.46094L1293.03 82.0234C1282.95 81.0156 1275.98 78.6641 1269.51 75.9766C1265.73 74.3809 1261.62 72.9531 1257 71.6934C1252.38 70.4336 1246.5 69.5938 1239.45 69.1738L1263.21 9.46094ZM1381.94 74.3809C1406.55 69.9297 1418.47 57.668 1418.47 41.207C1418.47 34.3203 1416.37 28.0215 1412.26 22.2266C1403.86 10.7207 1386.98 3.24609 1361.11 3.24609H1330.62L1330.54 72.2812V121.916H1343.22L1343.31 76.1445H1360.52C1362.29 76.1445 1364.05 76.0605 1365.65 75.9766C1365.73 75.9766 1365.73 75.9766 1365.81 75.9766C1402.43 76.3965 1409.74 92.6055 1409.74 121.916H1423.01C1423.01 114.777 1421.75 107.975 1419.23 101.34C1416.71 94.7891 1412.42 89.0781 1406.46 84.291C1400.41 79.5039 1392.27 76.2285 1381.94 74.3809ZM1343.31 7.27734H1361.11C1393.86 7.27734 1405.71 23.1504 1405.71 41.543C1405.71 59.7676 1393.86 72.2812 1360.86 72.2812H1343.31V7.27734ZM1432.05 121.916H1444.73L1444.64 3.33008H1431.96L1432.05 121.916ZM1561.69 121.916L1513.98 3.24609H1499.46L1451.58 121.916H1458.64L1478.04 72.9531C1484.34 73.373 1489.71 74.1289 1494 75.3887C1498.28 76.6484 1502.31 77.9922 1506.01 79.5039C1509.7 81.0996 1513.82 82.5273 1518.27 83.7871C1522.72 85.0469 1528.35 85.9707 1534.98 86.3906L1549.59 121.916H1561.69ZM1503.32 9.46094L1533.13 82.0234C1523.06 81.0156 1516.08 78.6641 1509.62 75.9766C1505.84 74.3809 1501.72 72.9531 1497.1 71.6934C1492.48 70.4336 1486.61 69.5938 1479.55 69.1738L1503.32 9.46094ZM1583.33 3.33008H1570.64L1570.73 118.221H1570.64L1570.73 121.496V121.916H1649V118.221H1583.41L1583.33 3.33008ZM1742.7 102.768L1661.91 3.24609H1657.96V121.916H1661.91V22.2266L1742.7 121.916H1746.73V3.24609H1742.7V102.768ZM1838.24 3.33008H1759.88V62.0352L1759.97 118.221H1759.88L1759.97 121.496V121.916H1838.24V118.221H1772.65V64.1348H1824.38V60.4395H1772.65L1772.57 7.02539H1838.24V3.33008Z" fill="#306145"/>
</svg>
