<svg width="909" height="129" viewBox="0 0 909 129" fill="none" xmlns="http://www.w3.org/2000/svg">
<path d="M83.04 3.10352H77.3037L13.248 65.9424L13.1611 3.19043H0.0371094L0.124023 125.913H13.248V71.5049L21.5049 63.4219C40.2783 63.6826 51.2295 69.1582 56.9658 79.7617C62.7021 90.3652 63.9189 105.836 63.9189 125.652H77.7383C77.7383 117.569 76.9561 109.747 75.4785 102.012C73.9141 94.3633 71.2197 87.4102 67.3955 81.2393C59.7471 68.8105 46.3623 60.7275 25.416 59.5977L83.04 3.10352ZM199.734 125.913L150.367 3.10352H135.331L85.79 125.913H93.0908L113.168 75.2422C119.686 75.6768 125.249 76.459 129.682 77.7627C134.114 79.0664 138.286 80.457 142.11 82.0215C145.935 83.6729 150.193 85.1504 154.8 86.4541C159.406 87.7578 165.229 88.7139 172.096 89.1484L187.219 125.913H199.734ZM139.329 9.53516L170.184 84.6289C159.754 83.5859 152.54 81.1523 145.848 78.3711C141.936 76.7197 137.678 75.2422 132.897 73.9385C128.117 72.6348 122.033 71.7656 114.732 71.3311L139.329 9.53516ZM296.699 106.097L213.088 3.10352H209.003V125.913H213.088V22.7461L296.699 125.913H300.871V3.10352H296.699V106.097ZM418.348 100.795C409.395 112.702 395.141 123.132 376.89 123.132C359.072 123.132 345.687 115.483 336.735 104.011C332.216 98.2744 328.826 91.9297 326.566 84.9766C324.307 78.0234 323.177 71.1572 323.177 64.291C323.177 57.4248 324.393 50.5586 326.74 43.6055C329.087 36.6523 332.563 30.3076 337.17 24.4844C346.296 13.0117 359.767 5.36328 376.89 5.36328C395.663 5.36328 409.482 15.4453 418.348 27.0918V15.9668C406.962 7.62305 392.534 0.496094 376.89 0.496094C358.464 0.496094 341.863 7.79688 329.695 19.6172C317.527 31.4375 310.14 47.2559 310.14 64.291C310.14 81.3262 317.527 97.1445 329.695 108.965C341.863 120.872 358.464 128.173 376.89 128.173C392.534 128.173 406.962 120.872 418.348 112.615V100.795ZM508.707 3.19043H427.616V63.9434L427.703 122.089H427.616L427.703 125.479V125.913H508.707V122.089H440.827V66.1162H494.366V62.292H440.827L440.74 7.01465H508.707V3.19043ZM610.191 3.10352H595.155L552.828 108.183H560.042L573.079 75.2422C579.597 75.6768 585.16 76.459 589.593 77.7627C594.025 79.0664 598.197 80.457 602.021 82.0215C605.846 83.6729 610.104 85.1504 614.711 86.4541C619.317 87.7578 625.054 88.7139 631.92 89.1484L647.043 125.913H659.645L610.191 3.10352ZM517.975 3.19043L518.062 125.479V125.913H599.066V122.089H531.186V3.19043H517.975ZM599.153 9.53516L630.095 84.6289C619.578 83.5859 612.538 81.1523 605.672 78.3711C601.761 76.7197 597.502 75.2422 592.721 73.9385C587.941 72.6348 581.857 71.7656 574.643 71.3311L599.153 9.53516ZM722.105 76.7197C747.571 72.1133 759.913 59.4238 759.913 42.3887C759.913 35.2617 757.74 28.7432 753.481 22.7461C744.79 10.8389 727.32 3.10352 700.551 3.10352H669.001L668.914 74.5469V125.913H682.038L682.125 78.5449H699.942C701.767 78.5449 703.593 78.458 705.244 78.3711C705.331 78.3711 705.331 78.3711 705.418 78.3711C743.312 78.8057 750.874 95.5801 750.874 125.913H764.606C764.606 118.525 763.302 111.485 760.695 104.619C758.088 97.8398 753.655 91.9297 747.484 86.9756C741.226 82.0215 732.796 78.6318 722.105 76.7197ZM682.125 7.27539H700.551C734.447 7.27539 746.702 23.7021 746.702 42.7363C746.702 61.5967 734.447 74.5469 700.29 74.5469H682.125V7.27539ZM773.962 125.913H787.086L786.999 3.19043H773.875L773.962 125.913ZM908.126 125.913L858.758 3.10352H843.722L794.181 125.913H801.482L821.559 75.2422C828.078 75.6768 833.64 76.459 838.073 77.7627C842.506 79.0664 846.677 80.457 850.502 82.0215C854.326 83.6729 858.585 85.1504 863.191 86.4541C867.798 87.7578 873.621 88.7139 880.487 89.1484L895.61 125.913H908.126ZM847.72 9.53516L878.575 84.6289C868.145 83.5859 860.931 81.1523 854.239 78.3711C850.328 76.7197 846.069 75.2422 841.289 73.9385C836.508 72.6348 830.424 71.7656 823.124 71.3311L847.72 9.53516Z" fill="#306145"/>
</svg>
