<svg width="728" height="129" viewBox="0 0 728 129" fill="none" xmlns="http://www.w3.org/2000/svg">
<path d="M83.04 3.10352H77.3037L13.248 65.9424L13.1611 3.19043H0.0371094L0.124023 125.913H13.248V71.5049L21.5049 63.4219C40.2783 63.6826 51.2295 69.1582 56.9658 79.7617C62.7021 90.3652 63.9189 105.836 63.9189 125.652H77.7383C77.7383 117.569 76.9561 109.747 75.4785 102.012C73.9141 94.3633 71.2197 87.4102 67.3955 81.2393C59.7471 68.8105 46.3623 60.7275 25.416 59.5977L83.04 3.10352ZM140.198 0.496094C121.772 0.496094 105.172 7.79688 93.0039 19.6172C80.8359 31.4375 73.4482 47.2559 73.4482 64.291C73.4482 81.3262 80.8359 97.1445 93.0039 108.965C105.172 120.872 121.772 128.173 140.198 128.173C158.624 128.173 175.225 120.872 187.393 108.965C199.561 97.1445 206.948 81.3262 206.948 64.291C206.948 47.2559 199.561 31.4375 187.393 19.6172C175.225 7.79688 158.624 0.496094 140.198 0.496094ZM140.198 123.132C122.381 123.132 108.996 115.483 100.044 104.011C95.5244 98.2744 92.1347 91.9297 89.875 84.9766C87.6152 78.0234 86.4853 71.1572 86.4853 64.291C86.4853 57.4248 87.7021 50.5586 90.0488 43.6055C92.3955 36.6523 95.872 30.3076 100.478 24.4844C109.604 13.0117 123.076 5.36328 140.198 5.36328C158.189 5.36328 171.574 13.0117 180.526 24.4844C189.478 36.0439 193.911 50.6455 193.911 64.291C193.911 71.1572 192.781 78.0234 190.435 84.9766C188.088 91.9297 184.611 98.2744 180.092 104.011C170.966 115.483 157.581 123.132 140.198 123.132ZM303.913 106.097L220.302 3.10352H216.217V125.913H220.302V22.7461L303.913 125.913H308.085V3.10352H303.913V106.097ZM367.503 125.913H380.627V7.01465H431.211V3.19043H317.353L317.527 7.01465H367.416L367.503 125.913ZM516.008 125.913L466.64 3.10352H451.604L402.063 125.913H409.364L429.441 75.2422C435.96 75.6768 441.522 76.459 445.955 77.7627C450.388 79.0664 454.559 80.457 458.384 82.0215C462.208 83.6729 466.467 85.1504 471.073 86.4541C475.68 87.7578 481.503 88.7139 488.369 89.1484L503.492 125.913H516.008ZM455.602 9.53516L486.457 84.6289C476.027 83.5859 468.813 81.1523 462.121 78.3711C458.21 76.7197 453.951 75.2422 449.171 73.9385C444.39 72.6348 438.306 71.7656 431.006 71.3311L455.602 9.53516ZM608.279 3.10352H602.543L538.487 65.9424L538.4 3.19043H525.276L525.363 125.913H538.487V71.5049L546.744 63.4219C565.517 63.6826 576.469 69.1582 582.205 79.7617C587.941 90.3652 589.158 105.836 589.158 125.652H602.977C602.977 117.569 602.195 109.747 600.718 102.012C599.153 94.3633 596.459 87.4102 592.635 81.2393C584.986 68.8105 571.601 60.7275 550.655 59.5977L608.279 3.10352ZM663.351 125.913H676.475V7.01465H727.059V3.19043H613.202L613.376 7.01465H663.264L663.351 125.913Z" fill="#306145"/>
</svg>
