<svg width="1846" height="279" viewBox="0 0 1846 279" fill="none" xmlns="http://www.w3.org/2000/svg">
<path d="M191.576 230.615L9.32227 6.11328H0.417969V273.811H9.32227V48.9297L191.576 273.811H200.67V6.11328H191.576V230.615ZM366.373 0.429688C326.209 0.429688 290.024 16.3438 263.5 42.1094C236.977 67.875 220.873 102.355 220.873 139.488C220.873 176.621 236.977 211.102 263.5 236.867C290.024 262.822 326.209 278.736 366.373 278.736C406.537 278.736 442.723 262.822 469.246 236.867C495.77 211.102 511.873 176.621 511.873 139.488C511.873 102.355 495.77 67.875 469.246 42.1094C442.723 16.3438 406.537 0.429688 366.373 0.429688ZM366.373 267.748C327.535 267.748 298.36 251.076 278.846 226.068C268.994 213.564 261.606 199.734 256.68 184.578C251.754 169.422 249.291 154.455 249.291 139.488C249.291 124.521 251.944 109.555 257.059 94.3984C262.174 79.2422 269.752 65.4121 279.793 52.7188C299.686 27.7109 329.051 11.0391 366.373 11.0391C405.59 11.0391 434.766 27.7109 454.279 52.7188C473.793 77.916 483.455 109.744 483.455 139.488C483.455 154.455 480.992 169.422 475.877 184.578C470.762 199.734 463.184 213.564 453.332 226.068C433.44 251.076 404.264 267.748 366.373 267.748ZM581.334 273.811H609.942V14.6387H720.203V6.30273H472.02L472.399 14.6387H581.145L581.334 273.811ZM905.042 273.811L797.432 6.11328H764.657L656.668 273.811H672.583L716.346 163.359C730.555 164.307 742.68 166.012 752.342 168.854C762.004 171.695 771.098 174.727 779.434 178.137C787.77 181.736 797.053 184.957 807.094 187.799C817.135 190.641 829.829 192.725 844.795 193.672L877.76 273.811H905.042ZM773.372 20.1328L840.627 183.82C817.893 181.547 802.168 176.242 787.581 170.18C779.055 166.58 769.772 163.359 759.352 160.518C748.932 157.676 735.67 155.781 719.756 154.834L773.372 20.1328ZM1041.19 166.58C1096.7 156.539 1123.6 128.879 1123.6 91.7461C1123.6 76.2109 1118.87 62.002 1109.58 48.9297C1090.64 22.9746 1052.56 6.11328 994.206 6.11328H925.434L925.245 161.844V273.811H953.852L954.042 170.559H992.88C996.858 170.559 1000.84 170.369 1004.44 170.18C1004.63 170.18 1004.63 170.18 1004.82 170.18C1087.42 171.127 1103.9 207.691 1103.9 273.811H1133.83C1133.83 257.707 1130.99 242.361 1125.31 227.395C1119.62 212.617 1109.96 199.734 1096.51 188.936C1082.87 178.137 1064.49 170.748 1041.19 166.58ZM954.042 15.207H994.206C1068.09 15.207 1094.81 51.0137 1094.81 92.5039C1094.81 133.615 1068.09 161.844 993.637 161.844H954.042V15.207ZM1154.23 273.811H1182.83L1182.64 6.30273H1154.04L1154.23 273.811ZM1429.24 182.494V5.16602H1420.34V182.494C1420.34 253.729 1376.58 270.4 1323.91 270.4C1276.54 270.4 1241.31 251.076 1241.31 182.494V5.16602H1212.7V33.9629C1212.7 53.0977 1212.7 76.5898 1212.7 104.061C1212.51 131.531 1212.51 157.676 1212.51 182.494C1212.51 240.088 1248.88 278.736 1324.29 278.736C1350.81 278.736 1371.65 274.758 1387 266.801C1402.34 258.844 1413.14 247.666 1419.58 233.078C1426.02 218.68 1429.24 201.818 1429.24 182.494ZM1629.05 30.5527L1628.1 29.416C1627.53 28.6582 1626.59 27.5215 1625.26 25.8164C1622.8 22.7852 1618.44 19.375 1612.38 15.3965C1600.06 7.62891 1579.6 0.429688 1547.58 0.429688C1533 0.429688 1518.98 3.08203 1505.15 8.38672C1491.32 13.6914 1479.76 20.8906 1470.85 29.7949C1461.95 38.8887 1457.4 48.9297 1457.4 60.1074C1457.4 90.7988 1495.1 112.396 1534.51 133.805C1576.76 156.918 1620.33 181.357 1620.33 220.006C1620.33 242.172 1595.7 271.348 1540.57 271.348C1518.41 271.348 1504.39 267.559 1495.48 262.633C1486.58 257.707 1482.6 252.402 1481.27 249.182L1480.14 246.719H1449.45L1451.53 249.939C1457.02 258.654 1478.05 278.736 1540.95 278.736C1619.58 278.736 1651.4 245.582 1651.4 213.186C1651.4 191.967 1639.66 174.537 1621.66 159.949C1603.66 145.361 1581.31 132.668 1558.76 121.111C1546.45 114.67 1535.08 108.229 1524.66 101.977C1503.44 89.2832 1489.04 76.0215 1489.04 59.5391C1489.04 38.5098 1508.37 8.57617 1547.2 8.57617C1566.72 8.57617 1581.12 13.6914 1590.97 19.5645C1600.82 25.4375 1605.75 30.5527 1605.75 30.5527H1629.05ZM1636.94 273.811H1837.57V265.475H1675.96L1845.34 6.11328H1644.7L1645.08 14.4492H1805.55L1636.94 273.811Z" fill="#306145"/>
</svg>
