<svg width="624" height="129" viewBox="0 0 624 129" fill="none" xmlns="http://www.w3.org/2000/svg">
<path d="M67.4414 0.496094C49.0156 0.496094 32.415 7.79688 20.2471 19.6172C8.0791 31.4375 0.691406 47.2559 0.691406 64.291C0.691406 81.3262 8.0791 97.1445 20.2471 108.965C32.415 120.872 49.0156 128.173 67.4414 128.173C85.8672 128.173 102.468 120.872 114.636 108.965C126.804 97.1445 134.191 81.3262 134.191 64.291C134.191 47.2559 126.804 31.4375 114.636 19.6172C102.468 7.79688 85.8672 0.496094 67.4414 0.496094ZM67.4414 123.132C49.624 123.132 36.2393 115.483 27.2871 104.011C22.7676 98.2744 19.3779 91.9297 17.1182 84.9766C14.8584 78.0234 13.7285 71.1572 13.7285 64.291C13.7285 57.4248 14.9453 50.5586 17.292 43.6055C19.6387 36.6523 23.1152 30.3076 27.7217 24.4844C36.8477 13.0117 50.3193 5.36328 67.4414 5.36328C85.4326 5.36328 98.8174 13.0117 107.77 24.4844C116.722 36.0439 121.154 50.6455 121.154 64.291C121.154 71.1572 120.024 78.0234 117.678 84.9766C115.331 91.9297 111.854 98.2744 107.335 104.011C98.209 115.483 84.8242 123.132 67.4414 123.132ZM175.097 3.10352H143.547L143.46 74.5469V125.913H156.584L156.671 78.5449H174.488C215.164 78.5449 234.459 63.6826 234.459 42.3887C234.459 35.2617 232.286 28.7432 228.027 22.7461C219.336 10.8389 201.866 3.10352 175.097 3.10352ZM174.836 74.5469H156.671V7.27539H175.097C208.993 7.27539 221.248 23.7021 221.248 42.7363C221.248 61.5967 208.993 74.5469 174.836 74.5469ZM256.851 3.19043H243.727L243.814 122.089H243.727L243.814 125.479V125.913H324.818V122.089H256.938L256.851 3.19043ZM441.513 125.913L392.145 3.10352H377.109L327.568 125.913H334.869L354.946 75.2422C361.465 75.6768 367.027 76.459 371.46 77.7627C375.892 79.0664 380.064 80.457 383.889 82.0215C387.713 83.6729 391.972 85.1504 396.578 86.4541C401.184 87.7578 407.008 88.7139 413.874 89.1484L428.997 125.913H441.513ZM381.107 9.53516L411.962 84.6289C401.532 83.5859 394.318 81.1523 387.626 78.3711C383.715 76.7197 379.456 75.2422 374.676 73.9385C369.895 72.6348 363.811 71.7656 356.511 71.3311L381.107 9.53516ZM458.951 125.913H472.075V7.01465H522.659V3.19043H408.802L408.975 7.01465H458.864L458.951 125.913ZM618.755 3.19043L578.513 57.3379L543.313 3.19043H527.582L566.346 62.5527V125.913H579.47V62.4658L623.535 3.19043H618.755Z" fill="#306145"/>
</svg>
